<svg width="18" height="24" viewBox="0 0 18 24" fill="none" xmlns="http://www.w3.org/2000/svg">
<path d="M8.99998 24C8.99998 24 0.599976 13.044 0.599976 8.4C0.599976 7.2969 0.817248 6.20459 1.23939 5.18546C1.66153 4.16632 2.28027 3.24032 3.06028 2.4603C3.84029 1.68029 4.7663 1.06155 5.78544 0.639412C6.80457 0.217272 7.89687 0 8.99998 0C10.1031 0 11.1954 0.217272 12.2145 0.639412C13.2337 1.06155 14.1597 1.68029 14.9397 2.4603C15.7197 3.24032 16.3384 4.16632 16.7606 5.18546C17.1827 6.20459 17.4 7.2969 17.4 8.4C17.4 13.044 8.99998 24 8.99998 24ZM8.99998 10.8C9.6365 10.8 10.2469 10.5471 10.697 10.0971C11.1471 9.64697 11.4 9.03652 11.4 8.4C11.4 7.76348 11.1471 7.15303 10.697 6.70294C10.2469 6.25286 9.6365 6 8.99998 6C8.36346 6 7.75301 6.25286 7.30292 6.70294C6.85283 7.15303 6.59998 7.76348 6.59998 8.4C6.59998 9.03652 6.85283 9.64697 7.30292 10.0971C7.75301 10.5471 8.36346 10.8 8.99998 10.8Z" fill="#121212"/>
</svg>
